<?xml version="1.0" standalone="no"?>
<!DOCTYPE svg PUBLIC "-//W3C//DTD SVG 20010904//EN"
 "http://www.w3.org/TR/2001/REC-SVG-20010904/DTD/svg10.dtd">
<svg version="1.0" xmlns="http://www.w3.org/2000/svg"
 width="2200.000000pt" height="2200.000000pt" viewBox="0 0 2200.000000 2200.000000"
 preserveAspectRatio="xMidYMid meet">
<metadata>
Created by potrace 1.11, written by Peter Selinger 2001-2013
</metadata>
<g transform="translate(0.000000,2200.000000) scale(0.100000,-0.100000)"
fill="#000000" stroke="none">
<path d="M3735 21989 c-723 -46 -1440 -300 -2038 -722 -542 -382 -981 -894
-1277 -1489 -240 -484 -373 -979 -410 -1533 -14 -207 -14 -14305 0 -14505 43
-619 211 -1180 517 -1722 53 -94 73 -112 73 -66 0 12 12 96 26 187 401 2589
1762 4931 3829 6587 862 691 1920 1288 2915 1644 l111 40 38 -83 c21 -45 93
-200 160 -344 66 -144 121 -264 121 -267 0 -2 -6 -6 -14 -8 -9 -2 14 -62 80
-203 51 -110 93 -203 94 -207 0 -5 -7 -8 -15 -8 -10 0 -3 -25 31 -97 31 -67
41 -99 33 -104 -8 -5 1 -34 30 -96 46 -101 46 -100 28 -105 -10 -2 26 -89 118
-288 99 -213 129 -286 118 -288 -9 -2 -13 -11 -10 -20 3 -10 100 -221 216
-470 116 -248 211 -454 211 -457 0 -3 -13 -5 -30 -5 -16 0 -30 -3 -30 -7 0 -3
36 -84 80 -179 44 -95 80 -175 80 -178 0 -3 -7 -6 -15 -6 -8 0 -15 -2 -15 -5
0 -2 38 -85 84 -185 72 -154 81 -180 65 -180 -10 0 -19 -2 -19 -5 0 -2 52
-116 116 -252 63 -136 118 -254 121 -260 3 -8 -2 -13 -11 -13 -22 0 -22 0 23
-96 l40 -84 -24 0 c-23 0 -21 -7 56 -171 43 -95 79 -173 79 -175 0 -2 -9 -4
-20 -4 -27 0 -26 -9 15 -90 19 -38 35 -72 35 -75 0 -3 -12 -5 -26 -5 -14 0
-24 -4 -22 -9 2 -5 45 -100 97 -211 87 -185 98 -203 131 -220 62 -31 174 -127
228 -194 75 -92 128 -188 164 -296 31 -91 32 -102 33 -255 0 -137 -3 -171 -23
-238 -21 -75 -80 -201 -121 -261 l-19 -29 35 -76 c19 -42 37 -82 40 -89 4 -9
-16 -12 -81 -12 -47 0 -86 -2 -86 -4 0 -2 50 -111 111 -242 61 -132 113 -245
116 -251 4 -10 -458 -13 -2291 -13 l-2296 0 -24 -38 c-145 -230 -180 -493 -99
-741 88 -271 315 -484 598 -563 78 -21 98 -22 780 -28 774 -7 738 -4 891 -75
406 -187 599 -636 458 -1065 -52 -159 -191 -341 -332 -433 l-63 -42 5203 -3
c3413 -2 5275 1 5413 7 233 12 383 29 585 67 525 98 1061 320 1494 618 l88 61
-2933 5 c-2821 5 -2936 6 -2999 24 -91 26 -221 88 -293 140 -334 238 -449 691
-272 1065 89 186 226 321 419 412 164 76 100 72 1166 79 855 6 962 8 1020 23
325 86 558 315 641 632 29 112 29 298 0 410 -85 324 -346 571 -671 636 -30 6
-158 14 -285 19 -220 7 -234 9 -325 38 -138 46 -238 108 -346 216 -185 185
-264 391 -251 656 4 91 12 135 36 210 99 308 368 542 676 591 53 8 86 18 96
30 15 16 18 17 23 3 3 -8 2 -12 -3 -9 -5 3 -12 1 -16 -5 -4 -7 13 -10 49 -8
31 1 56 7 56 12 0 5 -3 6 -7 3 -8 -8 -33 25 -27 35 3 5 15 8 27 8 18 0 19 2 7
10 -12 7 -10 11 10 20 23 10 23 10 3 6 -13 -2 -26 0 -29 5 -3 5 0 8 8 7 7 -2
12 3 11 10 -2 6 6 12 16 12 11 0 22 4 25 9 8 12 -16 30 -39 29 -70 -2 -175 6
-175 13 0 5 -5 9 -11 9 -5 0 -8 -4 -5 -9 7 -11 -50 -8 -61 3 -4 5 -3 6 3 3 13
-8 27 20 18 34 -3 5 0 9 6 9 6 0 8 5 4 11 -5 8 -10 6 -16 -5 -13 -24 -31 -20
-18 4 6 11 18 20 26 20 8 0 12 5 9 10 -3 6 1 10 10 10 8 0 18 7 21 15 4 8 11
12 17 8 6 -3 7 -1 3 5 -4 7 -2 12 3 12 6 0 11 4 11 10 0 5 -3 9 -7 9 -27 -4
-33 2 -23 20 15 29 13 44 -4 29 -8 -7 -12 -16 -9 -20 2 -5 -1 -8 -6 -8 -19 0
-12 -20 11 -29 12 -4 17 -10 11 -14 -6 -4 -16 0 -23 8 -7 8 -18 15 -26 15 -18
0 -27 17 -13 26 8 4 9 3 5 -4 -15 -25 9 -10 38 24 l31 35 22 -20 c18 -17 22
-18 27 -5 3 8 2 13 -3 9 -5 -3 -16 1 -23 9 -8 8 -31 14 -52 14 -31 0 -36 -3
-31 -17 4 -11 3 -13 -5 -5 -16 16 -2 46 17 35 21 -11 53 -2 53 16 0 8 4 11 10
8 5 -3 7 0 4 8 -3 8 2 20 11 27 16 14 21 35 5 25 -5 -3 -7 0 -4 8 3 8 -2 14
-11 14 -10 0 -13 -6 -9 -19 3 -10 2 -18 -3 -19 -4 0 -18 -2 -30 -5 -16 -3 -23
1 -23 11 0 8 7 15 15 15 8 0 15 -5 15 -11 0 -5 5 -7 10 -4 6 4 8 10 5 15 -13
22 7 38 41 33 27 -5 34 -2 34 11 0 10 5 14 11 10 8 -5 8 -1 0 14 -9 16 -7 21
9 25 11 3 20 11 20 19 0 10 -3 10 -11 -2 -9 -12 -10 -11 -6 8 3 12 3 22 1 22
-8 0 -27 -55 -25 -69 2 -13 0 -13 -13 -2 -9 7 -14 17 -11 21 3 5 0 12 -6 16
-8 4 -9 3 -5 -4 4 -7 2 -12 -3 -12 -13 0 -14 27 -2 35 5 3 12 1 16 -5 3 -5 11
-10 17 -10 7 0 6 6 -2 15 -9 11 -10 15 -1 15 8 0 7 6 -3 16 -9 9 -30 15 -49
14 -83 -5 -138 0 -131 12 5 8 2 9 -12 3 -33 -14 -61 -17 -67 -8 -3 5 3 10 14
11 42 4 49 6 49 13 0 4 9 6 20 4 15 -3 20 1 20 18 0 12 -4 17 -8 12 -10 -14
-48 -13 -45 1 1 7 -11 17 -27 24 -16 6 -31 19 -35 28 -3 9 -3 13 1 9 4 -4 14
-1 23 6 14 10 14 10 3 -5 -11 -14 -10 -18 7 -27 11 -6 24 -11 28 -10 4 1 10 0
13 -1 3 -1 13 -3 23 -5 15 -3 16 -1 6 11 -9 11 -9 14 1 14 8 0 10 3 7 6 -4 4
-13 1 -21 -5 -12 -10 -15 -9 -13 7 0 11 6 18 13 15 8 -3 12 3 11 16 -2 25 -27
37 -40 19 -6 -9 -7 -8 -3 4 3 10 1 20 -5 24 -7 4 -5 12 5 23 9 10 14 21 11 24
-3 4 -2 5 2 2 3 -3 12 0 20 6 10 9 13 8 13 -2 0 -10 3 -10 12 -1 17 17 -9 34
-32 22 -12 -6 -17 -5 -17 5 0 8 4 12 9 9 5 -4 15 2 23 12 12 18 14 17 41 -9
16 -16 20 -25 11 -21 -13 5 -17 0 -17 -22 0 -16 -4 -24 -8 -19 -9 12 -32 18
-33 7 -6 -31 -5 -52 1 -52 14 0 19 29 7 33 -7 3 2 4 19 2 28 -3 30 -1 26 21
-3 17 0 24 8 22 24 -6 18 30 -7 41 -14 7 -21 16 -17 23 4 7 3 8 -4 4 -7 -4
-12 -2 -12 3 0 6 5 11 10 11 6 0 10 6 10 13 0 15 -49 20 -167 19 -35 0 -66 4
-69 10 -5 7 0 9 13 6 11 -3 20 0 20 7 0 6 -10 10 -21 8 -14 -3 -29 4 -41 18
-12 13 -14 19 -5 14 8 -5 31 -10 50 -11 19 -1 28 0 18 3 -9 2 -19 10 -22 18
-6 17 10 30 19 15 8 -13 35 -13 35 -1 0 6 -13 18 -30 28 -16 9 -30 21 -30 26
0 5 7 4 15 -3 8 -6 19 -9 25 -5 15 9 12 25 -4 19 -8 -3 -17 -1 -21 5 -4 7 0 8
11 4 14 -5 16 -3 11 11 -5 11 -3 15 5 10 8 -5 9 -2 5 10 -4 9 0 28 9 42 15 22
15 24 0 24 -10 0 -13 5 -9 16 3 9 0 20 -8 25 -10 6 -7 9 11 9 23 1 24 2 7 14
-10 8 -13 16 -8 17 6 2 7 9 3 16 -5 8 -65 12 -204 14 -169 2 -195 4 -190 17 3
10 1 13 -6 8 -7 -4 -12 -1 -12 8 0 9 5 16 11 16 5 0 8 4 4 9 -7 12 29 33 39
24 3 -3 6 -1 6 6 0 7 5 9 12 5 7 -5 8 -3 2 7 -7 12 -7 59 1 67 7 7 34 -12 28
-21 -4 -6 -1 -7 7 -2 10 6 9 11 -5 22 -13 8 -14 13 -5 13 7 0 11 3 7 6 -6 6
-67 -26 -67 -36 0 -4 3 -10 7 -14 12 -12 11 -33 -2 -33 -9 0 -11 16 -9 54 2
39 -2 58 -14 70 -16 16 -16 16 2 10 14 -6 17 -4 12 9 -3 8 -6 20 -6 25 0 5
-104 9 -249 9 -271 0 -344 9 -466 55 -242 91 -439 302 -514 550 -24 79 -40
208 -35 275 2 25 4 56 4 70 0 18 3 21 9 12 6 -10 10 -7 15 13 4 16 2 33 -5 41
-9 11 -9 18 -1 26 7 7 12 20 12 30 0 10 5 18 11 18 5 0 8 4 4 9 -7 13 24 43
37 35 7 -4 8 -2 4 5 -4 6 -12 9 -17 6 -5 -4 -9 -4 -9 -1 0 12 24 56 30 56 4 0
7 6 7 13 0 8 18 52 41 98 60 124 180 239 330 317 117 61 205 83 357 89 l131 5
38 82 c59 129 70 151 81 158 6 4 7 8 2 8 -4 0 -1 12 6 28 8 15 18 37 21 50 6
19 4 22 -17 22 -14 0 -28 6 -30 13 -4 10 -6 10 -6 0 -1 -7 -7 -13 -15 -13 -18
0 -66 39 -65 53 0 8 2 8 6 -1 2 -6 10 -9 15 -6 6 4 8 2 5 -3 -4 -6 3 -13 14
-16 15 -4 19 -2 15 8 -3 8 -1 17 4 20 6 4 10 -1 10 -11 0 -14 2 -15 17 -3 15
12 16 12 8 -1 -6 -12 -5 -12 5 -3 15 14 4 34 -15 26 -21 -7 -19 14 3 26 15 9
16 10 0 11 -9 0 -20 -9 -23 -20 -3 -11 -11 -20 -16 -20 -11 0 -11 3 1 34 6 17
14 24 25 20 8 -4 15 -1 15 6 0 9 4 9 13 2 19 -16 39 -1 21 16 -8 7 -14 9 -14
5 0 -5 -9 -9 -20 -10 -11 -1 -18 2 -15 8 12 19 -7 30 -21 12 -13 -17 -14 -17
-7 2 6 20 21 35 35 35 4 0 4 -7 1 -17 -5 -12 -3 -14 7 -8 9 6 11 4 5 -4 -4 -7
4 -5 19 4 14 10 26 22 26 29 0 6 -4 5 -9 -3 -11 -17 -31 -6 -31 17 0 15 2 15
11 2 9 -13 10 -13 6 1 -3 9 8 31 24 50 29 34 36 54 21 63 -4 2 -16 -2 -27 -10
-10 -8 -14 -14 -9 -14 6 0 16 6 23 13 11 10 13 9 7 -6 -3 -10 -6 -21 -6 -23 0
-3 -5 -2 -12 2 -7 4 -8 3 -4 -4 4 -7 2 -12 -3 -12 -6 0 -11 -7 -11 -16 0 -8
-4 -13 -9 -9 -6 3 -9 14 -8 25 1 10 5 16 11 13 5 -4 7 1 3 9 -7 18 22 48 45
48 9 0 19 -6 21 -12 4 -10 6 -10 6 -1 1 15 -34 35 -44 25 -5 -4 -5 1 -2 11 4
10 7 21 7 25 0 3 6 -2 13 -12 12 -16 13 -16 13 3 0 12 -4 21 -9 21 -4 0 -6 4
-2 9 12 21 83 -9 410 -168 1515 -740 2819 -1824 3827 -3181 900 -1211 1526
-2597 1838 -4070 42 -199 113 -605 126 -717 3 -35 10 -63 15 -63 7 0 64 96
147 250 56 104 145 310 202 465 125 343 204 716 230 1100 8 115 10 2178 8
7365 -3 6860 -4 7212 -21 7345 -67 517 -196 942 -421 1380 -475 927 -1284
1626 -2271 1961 -264 90 -544 152 -885 196 -74 9 -1711 12 -7315 13 -3971 1
-7278 -2 -7350 -6z m7799 -3541 c295 -392 1194 -1587 1998 -2655 805 -1069
1497 -1989 1539 -2045 42 -57 190 -255 328 -441 139 -187 254 -344 257 -350 2
-8 -285 -133 -761 -332 -586 -245 -764 -324 -760 -335 2 -8 108 -380 236 -826
l231 -811 -62 -139 c-149 -332 -2587 -5599 -2651 -5727 -66 -130 -527 -1124
-724 -1562 -87 -192 -161 -354 -165 -358 -4 -4 -53 95 -110 220 -56 125 -108
238 -116 249 -7 12 -83 174 -167 360 -324 710 -480 1051 -514 1119 -19 39 -43
86 -53 105 -9 19 -25 53 -35 75 -9 22 -32 72 -50 110 -18 39 -47 99 -63 135
-17 36 -63 132 -101 214 -39 81 -71 151 -71 153 0 3 -22 51 -49 107 -27 56
-59 124 -71 151 -46 102 -112 244 -185 400 -73 154 -125 267 -125 270 0 2 -24
54 -54 117 -82 172 -1035 2229 -2119 4573 -201 435 -435 943 -520 1130 -85
187 -182 398 -216 469 -34 70 -61 132 -61 137 0 5 152 211 338 457 186 246
777 1028 1312 1737 536 710 1023 1355 1084 1435 139 184 414 547 570 755 66
88 124 165 128 170 23 28 274 360 340 450 4 6 26 33 49 60 24 28 148 192 277
365 231 311 576 770 578 770 1 0 243 -321 538 -712z m3601 -8498 c3 -5 2 -10
-4 -10 -5 0 -13 5 -16 10 -3 6 -2 10 4 10 5 0 13 -4 16 -10z m-60 -120 c-3 -5
-12 -10 -18 -10 -7 0 -6 4 3 10 19 12 23 12 15 0z m-995 -1195 c0 -8 -4 -15
-10 -15 -5 0 -7 7 -4 15 4 8 8 15 10 15 2 0 4 -7 4 -15z m1210 -1145 c13 0 13
2 0 11 -12 8 -12 10 -1 7 19 -5 23 -35 5 -35 -8 0 -22 10 -31 21 -10 12 -11
15 -3 9 8 -7 21 -13 30 -13z m-15 -88 c-3 -3 -11 0 -18 7 -9 10 -8 11 6 5 10
-3 15 -9 12 -12z m406 -165 c-1 -12 -15 -9 -19 4 -3 6 1 10 8 8 6 -3 11 -8 11
-12z m-36 -16 c3 -5 2 -12 -3 -15 -5 -3 -9 1 -9 9 0 17 3 19 12 6z m-10 -121
c13 -5 14 -9 5 -9 -8 0 -24 4 -35 9 -13 5 -14 9 -5 9 8 0 24 -4 35 -9z m5 -30
c0 -5 -5 -10 -11 -10 -5 0 -7 5 -4 10 3 6 8 10 11 10 2 0 4 -4 4 -10z m-10
-70 c0 -5 -8 -10 -17 -10 -15 0 -16 2 -3 10 19 12 20 12 20 0z m220 -28 c0 -5
-3 -12 -7 -16 -5 -4 -8 -13 -8 -18 0 -18 -22 -20 -29 -2 -4 11 0 18 14 21 11
3 17 9 14 14 -3 5 0 9 5 9 6 0 11 -4 11 -8z m-56 -87 c3 -8 1 -15 -4 -15 -6 0
-10 7 -10 15 0 8 2 15 4 15 2 0 6 -7 10 -15z m-10 -106 c3 -3 -4 -5 -14 -6
-11 -1 -22 2 -24 6 -5 8 30 8 38 0z m23 -41 c0 -13 -1 -17 -4 -10 -3 6 -10 9
-16 5 -7 -4 -6 1 2 10 17 21 17 21 18 -5z m-64 -63 c-7 -21 -12 -19 -10 4 0
11 5 18 9 15 4 -3 5 -11 1 -19z m58 -2 c10 -11 10 -14 2 -9 -7 4 -13 2 -13 -3
0 -6 -4 -11 -9 -11 -5 0 -7 9 -4 20 6 24 7 24 24 3z m182 -78 c-3 -9 -8 -14
-10 -11 -3 3 -2 9 2 15 9 16 15 13 8 -4z m-19 -57 c-3 -4 4 -8 14 -8 24 0 48
-25 32 -35 -14 -9 -52 4 -45 16 4 5 -1 12 -9 15 -20 8 -21 21 -1 21 8 0 12 -4
9 -9z m-4 -138 c-6 -11 -16 -20 -23 -20 -7 0 -6 4 3 10 8 5 11 10 5 10 -5 0
-3 5 5 10 21 14 22 13 10 -10z m-40 -5 c0 -8 -6 -15 -13 -15 -8 0 -14 7 -14
15 0 8 6 15 14 15 7 0 13 -7 13 -15z m-53 -104 c-8 -9 -12 -23 -9 -31 5 -16 3
-15 -18 15 -8 11 -11 17 -6 13 4 -4 14 -1 21 5 10 9 10 16 1 27 -10 13 -9 13
7 1 15 -12 16 -16 4 -30z m53 -75 c0 -3 -8 -6 -18 -6 -21 0 -56 -33 -45 -43 3
-4 1 -7 -5 -7 -7 0 -12 7 -12 15 0 8 5 15 11 15 5 0 8 4 5 9 -3 5 5 12 19 15
18 5 23 11 18 24 -6 16 -6 16 10 0 9 -9 17 -19 17 -22z m-51 -95 c-6 -2 -18 4
-27 13 -15 15 -15 15 10 4 15 -7 23 -15 17 -17z m-36 -24 c-8 -5 -17 -6 -20
-3 -4 3 -1 6 5 6 7 0 9 7 5 17 -6 15 -5 16 9 3 14 -13 14 -16 1 -23z m272 -36
c3 -7 3 -16 0 -19 -3 -3 -5 0 -5 7 0 7 -4 10 -10 6 -5 -3 -7 -12 -3 -20 3 -9
-1 -15 -8 -15 -8 0 -5 -6 7 -15 10 -8 14 -15 7 -15 -6 0 -19 8 -29 18 -17 16
-17 17 1 21 14 2 15 5 4 12 -10 6 -10 9 -1 9 6 0 12 5 12 11 0 5 -4 7 -10 4
-5 -3 -10 -2 -10 4 0 15 39 9 45 -8z m45 9 c0 -5 -4 -10 -10 -10 -5 0 -10 5
-10 10 0 6 5 10 10 10 6 0 10 -4 10 -10z m-119 -67 c-12 -20 -14 -14 -5 12 4
9 9 14 11 11 3 -2 0 -13 -6 -23z m39 -23 c0 -5 -4 -10 -10 -10 -5 0 -10 5 -10
10 0 6 5 10 10 10 6 0 10 -4 10 -10z m10 -30 c0 -5 -4 -10 -10 -10 -5 0 -10 5
-10 10 0 6 5 10 10 10 6 0 10 -4 10 -10z"/>
<path d="M15220 10089 c0 -5 5 -7 10 -4 6 3 10 8 10 11 0 2 -4 4 -10 4 -5 0
-10 -5 -10 -11z"/>
<path d="M15205 9961 c-3 -5 -2 -12 3 -15 5 -3 9 1 9 9 0 17 -3 19 -12 6z"/>
<path d="M15175 9950 c3 -5 8 -10 11 -10 2 0 4 5 4 10 0 6 -5 10 -11 10 -5 0
-7 -4 -4 -10z"/>
<path d="M15181 9886 c-9 -10 -8 -15 3 -19 9 -4 18 -1 22 5 5 7 2 8 -6 3 -10
-6 -12 -4 -7 8 8 21 3 22 -12 3z"/>
<path d="M15058 9413 c6 -2 9 -10 6 -15 -4 -7 -2 -8 5 -4 13 9 5 26 -12 25 -9
0 -8 -2 1 -6z"/>
<path d="M15337 7634 c-8 -8 1 -24 12 -24 4 0 8 7 8 15 0 16 -9 20 -20 9z"/>
<path d="M15370 7633 c0 -14 12 -23 40 -28 14 -3 20 2 20 16 0 22 -11 24 -28
7 -10 -10 -15 -10 -22 2 -6 9 -10 10 -10 3z"/>
<path d="M15335 7592 c-3 -3 -5 -10 -5 -16 0 -6 5 -4 10 4 8 13 10 13 10 -2 0
-22 16 -31 34 -21 11 6 12 13 6 23 -8 13 -10 12 -10 -3 0 -10 -4 -16 -10 -12
-5 3 -7 11 -4 19 5 12 -20 18 -31 8z"/>
<path d="M15335 7540 c-3 -5 -1 -10 4 -10 6 0 11 5 11 10 0 6 -2 10 -4 10 -3
0 -8 -4 -11 -10z"/>
<path d="M15325 7432 c-14 -10 -17 -32 -4 -32 5 0 7 -6 3 -12 -4 -7 -4 -10 1
-6 4 4 15 2 24 -4 9 -7 13 -8 9 -4 -4 5 -2 16 5 25 10 14 10 14 -5 3 -12 -10
-18 -10 -23 -1 -4 6 -2 15 5 19 7 4 8 10 3 13 -5 3 -13 3 -18 -1z"/>
<path d="M15710 7350 c0 -5 6 -10 13 -10 8 0 7 -3 -3 -10 -12 -7 -12 -10 4
-16 18 -7 18 -8 1 -20 -22 -16 -13 -46 11 -37 12 4 15 2 12 -8 -3 -8 -11 -13
-17 -11 -14 3 -14 -15 0 -20 8 -3 5 -10 -6 -22 -12 -12 -15 -20 -7 -28 13 -13
33 -2 26 16 -3 7 0 25 6 40 5 15 7 33 3 39 -14 23 -12 39 5 33 16 -5 16 -5 0
6 -15 11 -15 14 0 37 15 24 15 25 0 13 -11 -9 -18 -10 -23 -2 -8 13 -25 13
-25 0z"/>
<path d="M15790 7352 c0 -7 5 -12 11 -12 7 0 6 -8 -4 -23 -13 -21 -13 -23 2
-24 12 -1 16 6 16 23 -2 25 -25 60 -25 36z"/>
<path d="M15791 7264 c0 -11 3 -14 6 -6 3 7 2 16 -1 19 -3 4 -6 -2 -5 -13z"/>
<path d="M15710 7136 c0 -2 9 -6 20 -9 11 -3 18 -1 14 4 -5 9 -34 13 -34 5z"/>
<path d="M15705 7110 c3 -5 8 -10 11 -10 2 0 4 5 4 10 0 6 -5 10 -11 10 -5 0
-7 -4 -4 -10z"/>
<path d="M15911 6971 c-9 -16 -8 -18 9 -14 21 6 26 18 11 28 -6 3 -15 -3 -20
-14z"/>
<path d="M15935 6909 c-4 -6 -5 -12 -2 -15 2 -3 7 2 10 11 7 17 1 20 -8 4z"/>
<path d="M15850 6906 c0 -2 7 -7 16 -10 8 -3 12 -2 9 4 -6 10 -25 14 -25 6z"/>
<path d="M15805 6820 c3 -5 11 -10 16 -10 6 0 7 5 4 10 -3 6 -11 10 -16 10 -6
0 -7 -4 -4 -10z"/>
<path d="M15864 6789 c-3 -6 0 -15 7 -20 8 -5 15 -4 17 1 2 6 8 8 13 4 5 -3 9
-3 9 0 0 3 -9 10 -19 16 -14 7 -22 7 -27 -1z"/>
<path d="M15875 6739 c-4 -6 -5 -12 -2 -15 2 -3 7 2 10 11 7 17 1 20 -8 4z"/>
<path d="M16035 6610 c27 -12 43 -12 25 0 -8 5 -22 9 -30 9 -10 0 -8 -3 5 -9z"/>
<path d="M16005 6461 c-3 -6 3 -9 14 -8 11 0 17 5 15 9 -7 11 -22 10 -29 -1z"/>
<path d="M16000 6410 c-8 -5 -10 -10 -5 -10 6 0 17 5 25 10 8 5 11 10 5 10 -5
0 -17 -5 -25 -10z"/>
<path d="M16025 6389 c-4 -6 -5 -12 -2 -15 2 -3 7 2 10 11 7 17 1 20 -8 4z"/>
<path d="M15976 6358 c3 -5 10 -6 15 -3 13 9 11 12 -6 12 -8 0 -12 -4 -9 -9z"/>
<path d="M15960 6281 c0 -3 15 -14 33 -24 32 -17 32 -17 10 2 -12 10 -20 21
-18 23 3 3 -2 5 -10 5 -8 0 -15 -3 -15 -6z"/>
<path d="M15934 6189 c-10 -11 -19 -33 -19 -49 -1 -28 0 -29 19 -12 15 13 18
13 12 2 -4 -8 0 -6 8 4 18 22 21 46 6 46 -5 0 -7 -7 -4 -15 7 -18 -21 -21 -32
-3 -4 6 -3 9 2 5 5 -3 14 6 21 19 14 29 12 30 -13 3z"/>
<path d="M15985 6191 c-3 -5 -2 -12 3 -15 5 -3 9 1 9 9 0 17 -3 19 -12 6z"/>
<path d="M16175 6050 c-3 -5 -1 -10 4 -10 6 0 11 5 11 10 0 6 -2 10 -4 10 -3
0 -8 -4 -11 -10z"/>
<path d="M16160 6026 c0 -2 8 -10 18 -17 15 -13 16 -12 3 4 -13 16 -21 21 -21
13z"/>
<path d="M16139 5973 c-13 -16 -12 -17 4 -4 9 7 17 15 17 17 0 8 -8 3 -21 -13z"/>
<path d="M16167 5949 c4 -13 8 -18 11 -10 2 7 -1 18 -6 23 -8 8 -9 4 -5 -13z"/>
</g>
</svg>
